<svg width="20" height="18" viewBox="0 0 20 18" fill="none" xmlns="http://www.w3.org/2000/svg">
<path d="M1.76367 16.3408H3.49094M3.49094 16.3408H12.1273M3.49094 16.3408V4.42274C3.49094 3.45538 3.49094 2.97133 3.67921 2.60185C3.84481 2.27684 4.10885 2.0128 4.43386 1.8472C4.80334 1.65894 5.28739 1.65894 6.25475 1.65894H9.36384C10.3312 1.65894 10.8142 1.65894 11.1837 1.8472C11.5087 2.0128 11.7736 2.27684 11.9392 2.60185C12.1273 2.97097 12.1273 3.45443 12.1273 4.4199V9.43166M12.1273 16.3408H17.3091M12.1273 16.3408V9.43166M17.3091 16.3408H19.0364M17.3091 16.3408V9.43166C17.3091 8.62686 17.309 8.22465 17.1776 7.90723C17.0022 7.484 16.6663 7.14754 16.2431 6.97223C15.9257 6.84075 15.5228 6.84075 14.718 6.84075C13.9132 6.84075 13.5108 6.84075 13.1934 6.97223C12.7701 7.14754 12.4341 7.484 12.2588 7.90723C12.1273 8.22465 12.1273 8.62685 12.1273 9.43166M6.08185 7.70439H9.5364M6.08185 5.11348H9.5364" stroke="#5A5A5A" stroke-width="1.6" stroke-linecap="round" stroke-linejoin="round"/>
</svg>
